# Made in Blockbench 4.12.4
mtllib player.mtl

o cube
v 0.007031249999999994 0.012499999999999997 0.004687500000000011
v 0.007031249999999994 0.012499999999999997 -0.004687500000000001
v 0.007031249999999994 -0.012499999999999994 0.004687500000000011
v 0.007031249999999994 -0.012499999999999994 -0.004687500000000001
v -0.00546875 0.012499999999999997 -0.004687500000000001
v -0.00546875 0.012499999999999997 0.004687500000000011
v -0.00546875 -0.012499999999999994 -0.004687500000000001
v -0.00546875 -0.012499999999999994 0.004687500000000011
vt 0.3888888888888889 0.625
vt 0.5 0.625
vt 0.5 0.02499999999999991
vt 0.3888888888888889 0.02499999999999991
vt 0.1111111111111111 0.625
vt 0.20000000000000007 0.625
vt 0.20000000000000007 0.02499999999999991
vt 0.1111111111111111 0.02499999999999991
vt 0.2777777777777778 0.625
vt 0.3888888888888889 0.625
vt 0.3888888888888889 0.02499999999999991
vt 0.2777777777777778 0.02499999999999991
vt 0.19444444444444445 0.625
vt 0.28333333333333344 0.625
vt 0.28333333333333344 0.02499999999999991
vt 0.19444444444444445 0.02499999999999991
vt 0 0.4375
vt 0.1111111111111111 0.4375
vt 0.1111111111111111 0.23749999999999982
vt 0 0.23749999999999982
vt 0 0.625
vt 0.1111111111111111 0.625
vt 0.1111111111111111 0.4249999999999998
vt 0 0.4249999999999998
vn 0 0 -1
vn 1 0 0
vn 0 0 1
vn -1 0 0
vn 0 1 0
vn 0 -1 0
usemtl m_a1e84e49-14c8-bd66-11fc-eb491f90d982
f 4/4/1 7/3/1 5/2/1 2/1/1
f 3/8/2 4/7/2 2/6/2 1/5/2
f 8/12/3 3/11/3 1/10/3 6/9/3
f 7/16/4 8/15/4 6/14/4 5/13/4
f 6/20/5 1/19/5 2/18/5 5/17/5
f 7/24/6 4/23/6 3/22/6 8/21/6
o cube
v 0.006250000000000009 0.023437499999999965 0.005468749999999949
v 0.006250000000000009 0.023437499999999965 -0.00546875000000005
v 0.006250000000000009 0.012499999999999973 0.005468749999999949
v 0.006250000000000009 0.012499999999999973 -0.00546875000000005
v -0.004687499999999987 0.023437499999999965 -0.00546875000000005
v -0.004687499999999987 0.023437499999999965 0.005468749999999949
v -0.004687499999999987 0.012499999999999973 -0.00546875000000005
v -0.004687499999999987 0.012499999999999973 0.005468749999999949
vt 0 1
vt 0.16666666666666666 1
vt 0.16666666666666666 0.625
vt 0 0.625
vt 0.8333333333333334 1
vt 1 1
vt 1 0.625
vt 0.8333333333333334 0.625
vt 0.6666666666666666 1
vt 0.8333333333333334 1
vt 0.8333333333333334 0.625
vt 0.6666666666666666 0.625
vt 0.3333333333333333 1
vt 0.5 1
vt 0.5 0.625
vt 0.3333333333333333 0.625
vt 0.3333333333333333 0.625
vt 0.16666666666666666 0.625
vt 0.16666666666666666 1
vt 0.3333333333333333 1
vt 0.6666666666666666 1
vt 0.5 1
vt 0.5 0.625
vt 0.6666666666666666 0.625
vn 0 0 -1
vn 1 0 0
vn 0 0 1
vn -1 0 0
vn 0 1 0
vn 0 -1 0
usemtl m_a1e84e49-14c8-bd66-11fc-eb491f90d982
f 12/28/7 15/27/7 13/26/7 10/25/7
f 11/32/8 12/31/8 10/30/8 9/29/8
f 16/36/9 11/35/9 9/34/9 14/33/9
f 15/40/10 16/39/10 14/38/10 13/37/10
f 14/44/11 9/43/11 10/42/11 13/41/11
f 15/48/12 12/47/12 11/46/12 16/45/12
o cube
v -6.071532165918825e-18 -0.012500000000000013 0.0031250000000000496
v -6.071532165918825e-18 -0.012500000000000013 -0.003124999999999956
v -6.071532165918825e-18 -0.028124999999999997 0.0031250000000000496
v -6.071532165918825e-18 -0.028124999999999997 -0.003124999999999956
v -0.005468750000000027 -0.012500000000000013 -0.003124999999999956
v -0.005468750000000027 -0.012500000000000013 0.0031250000000000496
v -0.005468750000000027 -0.028124999999999997 -0.003124999999999956
v -0.005468750000000027 -0.028124999999999997 0.0031250000000000496
vt 0.8666666666666667 0.625
vt 0.9111111111111114 0.625
vt 0.9111111111111114 0.12500000000000044
vt 0.8666666666666667 0.12500000000000044
vt 0.7777777777777778 0.625
vt 0.8222222222222223 0.625
vt 0.8222222222222223 0.12500000000000044
vt 0.7777777777777778 0.12500000000000044
vt 0.9111111111111112 0.625
vt 0.9555555555555559 0.625
vt 0.9555555555555559 0.12500000000000022
vt 0.9111111111111112 0.12500000000000022
vt 0.8222222222222221 0.625
vt 0.8666666666666666 0.625
vt 0.8666666666666666 0.12500000000000044
vt 0.8222222222222221 0.12500000000000044
vt 0.5 0.375
vt 0.5555555555555558 0.375
vt 0.5555555555555558 0.25
vt 0.5 0.25
vt 0.5 0.25
vt 0.5555555555555558 0.25
vt 0.5555555555555558 0.125
vt 0.5 0.125
vn 0 0 -1
vn 1 0 0
vn 0 0 1
vn -1 0 0
vn 0 1 0
vn 0 -1 0
usemtl m_a1e84e49-14c8-bd66-11fc-eb491f90d982
f 20/52/13 23/51/13 21/50/13 18/49/13
f 19/56/14 20/55/14 18/54/14 17/53/14
f 24/60/15 19/59/15 17/58/15 22/57/15
f 23/64/16 24/63/16 22/62/16 21/61/16
f 22/68/17 17/67/17 18/66/17 21/65/17
f 23/72/18 20/71/18 19/70/18 24/69/18
o cube
v -0.0054687500000000205 0.012499999999999983 0.0031250000000000496
v -0.0054687500000000205 0.012499999999999983 -0.003124999999999956
v -0.0054687500000000205 -0.00859374999999999 0.0031250000000000496
v -0.0054687500000000205 -0.00859374999999999 -0.003124999999999956
v -0.010156250000000025 0.012499999999999983 -0.003124999999999956
v -0.010156250000000025 0.012499999999999983 0.0031250000000000496
v -0.010156250000000025 -0.00859374999999999 -0.003124999999999956
v -0.010156250000000025 -0.00859374999999999 0.0031250000000000496
vt 0.6666666666666666 0.625
vt 0.7222222222222224 0.625
vt 0.7222222222222224 0.12500000000000033
vt 0.6666666666666666 0.12500000000000033
vt 0.5555555555555556 0.625
vt 0.6111111111111113 0.625
vt 0.6111111111111113 0.12500000000000044
vt 0.5555555555555556 0.12500000000000044
vt 0.7222222222222222 0.625
vt 0.777777777777778 0.625
vt 0.777777777777778 0.12500000000000044
vt 0.7222222222222222 0.12500000000000044
vt 0.6111111111111112 0.625
vt 0.6666666666666669 0.625
vt 0.6666666666666669 0.12500000000000044
vt 0.6111111111111112 0.12500000000000044
vt 0.5 0.625
vt 0.5555555555555558 0.625
vt 0.5555555555555558 0.5
vt 0.5 0.5
vt 0.5 0.5
vt 0.5555555555555558 0.5
vt 0.5555555555555558 0.375
vt 0.5 0.375
vn 0 0 -1
vn 1 0 0
vn 0 0 1
vn -1 0 0
vn 0 1 0
vn 0 -1 0
usemtl m_a1e84e49-14c8-bd66-11fc-eb491f90d982
f 28/76/19 31/75/19 29/74/19 26/73/19
f 27/80/20 28/79/20 26/78/20 25/77/20
f 32/84/21 27/83/21 25/82/21 30/81/21
f 31/88/22 32/87/22 30/86/22 29/85/22
f 30/92/23 25/91/23 26/90/23 29/89/23
f 31/96/24 28/95/24 27/94/24 32/93/24
o cube
v 0.011718750000000007 0.012499999999999983 0.0031250000000000496
v 0.011718750000000007 0.012499999999999983 -0.003124999999999956
v 0.011718750000000007 -0.00859374999999999 0.0031250000000000496
v 0.011718750000000007 -0.00859374999999999 -0.003124999999999956
v 0.007031249999999988 0.012499999999999983 -0.003124999999999956
v 0.007031249999999988 0.012499999999999983 0.0031250000000000496
v 0.007031249999999988 -0.00859374999999999 -0.003124999999999956
v 0.007031249999999988 -0.00859374999999999 0.0031250000000000496
vt 0.6666666666666666 0.625
vt 0.7222222222222225 0.625
vt 0.7222222222222225 0.12500000000000044
vt 0.6666666666666666 0.12500000000000044
vt 0.5555555555555556 0.625
vt 0.6111111111111113 0.625
vt 0.6111111111111113 0.12500000000000044
vt 0.5555555555555556 0.12500000000000044
vt 0.7222222222222222 0.625
vt 0.7777777777777781 0.625
vt 0.7777777777777781 0.12500000000000044
vt 0.7222222222222222 0.12500000000000044
vt 0.6111111111111112 0.625
vt 0.6666666666666669 0.625
vt 0.6666666666666669 0.12500000000000044
vt 0.6111111111111112 0.12500000000000044
vt 0.5 0.625
vt 0.5555555555555558 0.625
vt 0.5555555555555558 0.5
vt 0.5 0.5
vt 0.5 0.5
vt 0.5555555555555558 0.5
vt 0.5555555555555558 0.375
vt 0.5 0.375
vn 0 0 -1
vn 1 0 0
vn 0 0 1
vn -1 0 0
vn 0 1 0
vn 0 -1 0
usemtl m_a1e84e49-14c8-bd66-11fc-eb491f90d982
f 36/100/25 39/99/25 37/98/25 34/97/25
f 35/104/26 36/103/26 34/102/26 33/101/26
f 40/108/27 35/107/27 33/106/27 38/105/27
f 39/112/28 40/111/28 38/110/28 37/109/28
f 38/116/29 33/115/29 34/114/29 37/113/29
f 39/120/30 36/119/30 35/118/30 40/117/30
o cube
v 0.007031249999999959 -0.012500000000000013 0.0031250000000000496
v 0.007031249999999959 -0.012500000000000013 -0.003124999999999956
v 0.007031249999999959 -0.028124999999999997 0.0031250000000000496
v 0.007031249999999959 -0.028124999999999997 -0.003124999999999956
v 0.0015624999999999446 -0.012500000000000013 -0.003124999999999956
v 0.0015624999999999446 -0.012500000000000013 0.0031250000000000496
v 0.0015624999999999446 -0.028124999999999997 -0.003124999999999956
v 0.0015624999999999446 -0.028124999999999997 0.0031250000000000496
vt 0.8666666666666667 0.625
vt 0.9111111111111114 0.625
vt 0.9111111111111114 0.12500000000000044
vt 0.8666666666666667 0.12500000000000044
vt 0.7777777777777778 0.625
vt 0.8222222222222223 0.625
vt 0.8222222222222223 0.12500000000000044
vt 0.7777777777777778 0.12500000000000044
vt 0.9111111111111112 0.625
vt 0.9555555555555559 0.625
vt 0.9555555555555559 0.12500000000000022
vt 0.9111111111111112 0.12500000000000022
vt 0.8222222222222221 0.625
vt 0.8666666666666666 0.625
vt 0.8666666666666666 0.12500000000000044
vt 0.8222222222222221 0.12500000000000044
vt 0.5 0.375
vt 0.5555555555555558 0.375
vt 0.5555555555555558 0.25
vt 0.5 0.25
vt 0.5 0.25
vt 0.5555555555555558 0.25
vt 0.5555555555555558 0.125
vt 0.5 0.125
vn 0 0 -1
vn 1 0 0
vn 0 0 1
vn -1 0 0
vn 0 1 0
vn 0 -1 0
usemtl m_a1e84e49-14c8-bd66-11fc-eb491f90d982
f 44/124/31 47/123/31 45/122/31 42/121/31
f 43/128/32 44/127/32 42/126/32 41/125/32
f 48/132/33 43/131/33 41/130/33 46/129/33
f 47/136/34 48/135/34 46/134/34 45/133/34
f 46/140/35 41/139/35 42/138/35 45/137/35
f 47/144/36 44/143/36 43/142/36 48/141/36